Coordinates
version=1
nRows=7
nColumns=42
inDegrees=yes

Units are S.I. units (second, meters, Newtons, ...)
If the header above contains a line with 'inDegrees', this indicates whether rotational values are in degrees (yes) or radians (no).

endheader
time	pelvis_tilt	pelvis_list	pelvis_rotation	pelvis_tx	pelvis_ty	pelvis_tz	hip_flexion_r	hip_adduction_r	hip_rotation_r	knee_angle_r	knee_adduction_r	knee_angle_r_beta	ankle_angle_r	subtalar_angle_r	mtp_angle_r	hip_flexion_l	hip_adduction_l	hip_rotation_l	knee_angle_l	knee_adduction_l	knee_angle_l_beta	ankle_angle_l	subtalar_angle_l	mtp_angle_l	lumbar_extension	lumbar_bending	lumbar_rotation	arm_flex_r	arm_add_r	arm_rot_r	elbow_flex_r	pro_sup_r	wrist_flex_r	wrist_dev_r	arm_flex_l	arm_add_l	arm_rot_l	elbow_flex_l	pro_sup_l	wrist_flex_l	wrist_dev_l
      0.00000000	     -5.65893403	     -1.71913339	      3.15566906	     -1.78410899	      0.96181191	     -0.10798167	     14.94909257	      0.88171837	     -7.27216728	     58.84087122	     -0.54401877	      1.02696694	      4.67255287	    -17.22033712	     -9.69259307	     14.53521874	      2.15385555	      4.34044026	     13.17668099	     -3.49050211	      0.22997647	     10.07424658	      0.96932795	     -9.69259307	     -8.80324327	     -2.49638380	     -6.16064950	     -4.44394110	     -6.73948822	     -6.13457144	     20.77015561	     90.00000001	      0.00000000	      0.00000000	      4.15268297	    -14.52604625	     -7.51644571	     28.54606715	     90.00000001	      0.00000000	      0.00000000
      0.01000000	     -5.63761991	     -1.93436321	      3.31038474	     -1.77385054	      0.96279156	     -0.10918056	     16.42277326	      1.00582307	     -6.92438242	     58.74189488	     -0.33473908	      1.02523947	      5.34431344	    -16.99317792	     -9.66151643	     13.50537703	      2.06002606	      4.44117439	     12.60274703	     -3.71782322	      0.21995943	     10.48684230	      1.19327356	     -9.66151643	     -8.71661190	     -2.01037145	     -6.46973425	     -4.80094095	     -6.65030326	     -6.20353988	     20.18821432	     90.00000001	      0.00000000	      0.00000000	      4.77270344	    -14.53259083	     -7.27766917	     29.34904424	     90.00000001	      0.00000000	      0.00000000
      0.02000000	     -5.46897732	     -1.91899409	      3.37944233	     -1.76360777	      0.96388162	     -0.11006532	     17.59835703	      0.88555365	     -5.94340568	     58.29314879	      0.39409162	      1.01740738	      5.78471857	    -17.08616046	     -9.57307194	     12.03777871	      2.16921882	      4.83230010	     11.53735827	     -3.91400329	      0.20136489	     10.55568249	      1.26874190	     -9.57307194	     -8.84379212	     -1.83689304	     -6.67291781	     -4.97275594	     -6.35749621	     -7.21912973	     19.38725336	     90.00000001	      0.00000000	      0.00000000	      5.20358210	    -14.86713868	     -6.19272096	     30.65334497	     90.00000001	      0.00000000	      0.00000000
      0.03000000	     -5.52804731	     -2.03184300	      3.48880020	     -1.75326018	      0.96436571	     -0.11102371	     19.01905219	      0.97503593	     -5.61002673	     57.61447459	      0.45620247	      1.00556228	      6.29018909	    -17.02835064	     -9.54228869	     11.07628885	      2.14917101	      4.88272086	     10.94196272	     -4.12167457	      0.19097328	     10.98792279	      1.46862473	     -9.54228869	     -8.65390275	     -1.51116350	     -6.94197597	     -5.37299622	     -6.24587026	     -7.39673356	     18.89055084	     90.00000001	      0.00000000	      0.00000000	      5.75212156	    -14.95912403	     -5.94871435	     31.50219897	     90.00000001	      0.00000000	      0.00000000
      0.04000000	     -5.56717222	     -2.03794716	      3.62712081	     -1.74286038	      0.96465511	     -0.11199201	     20.31345604	      0.90462016	     -5.34647259	     56.64172593	      0.52484670	      0.98858461	      6.59733156	    -16.95193493	     -9.51845577	     10.14975115	      2.22826294	      4.82021555	     10.47207631	     -4.28062852	      0.18277221	     11.31265190	      1.65070248	     -9.51845577	     -8.50032094	     -1.31991903	     -7.18595444	     -5.86389998	     -6.11593260	     -7.58502401	     18.51657044	     90.00000001	      0.00000000	      0.00000000	      6.31963284	    -15.05573256	     -5.70294922	     32.35434704	     90.00000001	      0.00000000	      0.00000000
      0.05000000	     -4.98755114	     -2.09291746	      3.68722283	     -1.73231155	      0.96566702	     -0.11267980	     20.72152905	      1.03937186	     -4.65039989	     55.23237395	      0.83902936	      0.96398678	      6.70922526	    -17.42730066	     -9.44094714	      7.97814597	      2.17480920	      5.44662691	      8.95794772	     -4.47684118	      0.15634568	     11.39739844	      1.89469558	     -9.44094714	     -9.12272987	     -1.03256851	     -7.34672577	     -5.92753011	     -5.82996952	     -9.05599640	     17.83176120	     90.00000001	      0.00000000	      0.00000000	      6.66728291	    -15.52987341	     -4.34098070	     33.94219142	     90.00000001	      0.00000000	      0.00000000
      0.06000000	     -4.98468375	     -2.11252411	      3.80842687	     -1.72199642	      0.96554908	     -0.11343408	     21.83448719	      1.08763693	     -4.49880824	     53.79870190	      0.68213502	      0.93896448	      7.04802113	    -17.52037320	     -9.39938165	      6.85919584	      2.19423763	      5.71709981	      8.19347035	     -4.60704586	      0.14300303	     11.86641176	      2.09941672	     -9.39938165	     -9.05225717	     -0.83495856	     -7.59589759	     -6.30678308	     -5.67991700	     -9.48811938	     17.46978639	     90.00000001	      0.00000000	      0.00000000	      7.16518811	    -15.72798072	     -3.99458305	     34.94058178	     90.00000001	      0.00000000	      0.00000000
